# Blender v2.78 (sub 0) OBJ File: ''
# www.blender.org
mtllib CarTire.mtl
o CarTire
v 0.708537 0.514782 0.472368
v 0.605163 0.196629 -0.000000
v 0.708537 0.514782 -0.000000
v 0.605163 0.196629 0.472368
v 0.334526 0.000000 -0.000000
v 0.334526 0.000000 0.472368
v 0.000000 0.000000 0.000000
v 0.000000 0.000000 0.472368
v -0.270637 0.196629 0.000000
v -0.374011 0.514782 0.472368
v -0.374011 0.514782 0.000000
v -0.270637 0.832935 0.472368
v -0.270637 0.832935 0.000000
v -0.000000 1.029564 0.472368
v -0.000000 1.029564 0.000000
v 0.334526 1.029564 -0.000000
v 0.334526 1.029564 0.472368
v 0.605163 0.832934 -0.000000
v 0.605163 0.832934 0.472368
v 0.020685 0.514782 0.041767
v 0.708537 0.514782 0.472368
v 0.501265 0.272115 0.472368
v 0.605163 0.196629 0.472368
v 0.039685 0.907425 0.472368
v 0.294840 0.907425 0.282686
v 0.294840 0.907425 0.472368
v -0.000000 1.029564 0.472368
v 0.334526 1.029564 0.472368
v -0.374011 0.514782 0.472368
v -0.166739 0.272115 0.472368
v -0.245586 0.514782 0.472368
v 0.334526 0.000000 0.472368
v 0.294840 0.122139 0.472368
v 0.501265 0.757448 0.472368
v 0.605163 0.832934 0.472368
v -0.166739 0.757449 0.472368
v -0.270637 0.832935 0.472368
v 0.000000 0.000000 0.472368
v 0.039685 0.122139 0.472368
v 0.580112 0.514782 0.472368
v -0.270637 0.196629 0.472368
v 0.501265 0.272115 0.282686
v 0.247973 0.266380 0.282686
v 0.294840 0.122139 0.282686
v -0.245586 0.514782 0.282686
v 0.501265 0.757448 0.282686
v -0.166739 0.757449 0.282686
v 0.039685 0.122139 0.282686
v 0.580112 0.514782 0.282686
v 0.039685 0.907425 0.282686
v -0.166739 0.272115 0.282686
v 0.247973 0.763183 0.282686
v 0.378566 0.668302 0.350377
v 0.378566 0.668302 0.282686
v -0.044040 0.668302 0.282686
v 0.086552 0.266380 0.282686
v 0.428448 0.514782 0.282686
v 0.086552 0.763183 0.282686
v -0.044040 0.361261 0.282686
v 0.378566 0.361261 0.282686
v -0.093922 0.514782 0.282686
v 0.247973 0.763183 0.350377
v 0.086552 0.266380 0.350377
v 0.247973 0.266380 0.350377
v -0.044040 0.668302 0.350377
v 0.428448 0.514782 0.350377
v 0.086552 0.763183 0.350377
v -0.044040 0.361261 0.350377
v 0.378566 0.361261 0.350377
v -0.093922 0.514782 0.350377
v 0.048679 0.428626 0.041767
v 0.121968 0.375379 0.041767
v 0.313840 0.514782 0.041767
v 0.212558 0.375379 0.041767
v 0.285846 0.428626 0.041767
v 0.285846 0.600938 0.041767
v 0.212558 0.654185 0.041767
v 0.121968 0.654185 0.041767
v 0.048679 0.600938 0.041767
v -0.270637 0.196629 0.472368
vt 0.3357 0.0002
vt 0.4030 0.2236
vt 0.3294 0.2051
vt 0.5225 0.0679
vt 0.4522 0.2797
vt 0.6307 0.2244
vt 0.4587 0.3540
vt 0.6289 0.4052
vt 0.4209 0.4210
vt 0.3806 0.6370
vt 0.3492 0.4500
vt 0.1785 0.6238
vt 0.2759 0.4309
vt 0.0002 0.4723
vt 0.2292 0.3739
vt 0.2197 0.3004
vt 0.0002 0.2328
vt 0.2586 0.2344
vt 0.1351 0.0575
vt 0.3427 0.3622
vt 0.8154 0.0002
vt 0.7285 0.0744
vt 0.7014 0.0372
vt 0.6318 0.8372
vt 0.5205 0.7956
vt 0.5731 0.7473
vt 0.9998 0.2540
vt 0.9561 0.1484
vt 0.9998 0.1342
vt 0.8154 0.3880
vt 0.7285 0.3137
vt 0.8154 0.3420
vt 0.6310 0.1342
vt 0.6748 0.1484
vt 0.9023 0.0744
vt 0.9294 0.0372
vt 0.9023 0.3137
vt 0.9294 0.3509
vt 0.6310 0.2540
vt 0.6748 0.2398
vt 0.8154 0.0462
vt 0.9561 0.2398
vt 0.7014 0.3509
vt 0.3132 0.7034
vt 0.2560 0.7691
vt 0.2378 0.7199
vt 0.0613 0.7803
vt 0.0815 0.8843
vt 0.0217 0.8648
vt 0.3064 0.6373
vt 0.2113 0.6588
vt 0.4598 0.7424
vt 0.4941 0.6829
vt 0.0655 0.9687
vt 0.0002 0.9527
vt 0.1703 0.7585
vt 0.1268 0.7081
vt 0.3897 0.7109
vt 0.4035 0.6456
vt 0.6672 0.9455
vt 0.5626 0.8705
vt 0.1160 0.8154
vt 0.8352 0.4322
vt 0.7711 0.4155
vt 0.7792 0.3883
vt 0.4747 0.8316
vt 0.4312 0.7840
vt 0.1231 0.9594
vt 0.2029 0.8007
vt 0.3759 0.7604
vt 0.5167 0.9578
vt 0.5096 0.8887
vt 0.1611 0.8478
vt 0.3155 0.7553
vt 0.1289 0.9000
vt 0.8137 0.4502
vt 0.6764 0.5488
vt 0.6593 0.4966
vt 0.7771 0.6111
vt 0.8205 0.5610
vt 0.8319 0.5840
vt 0.6310 0.4986
vt 0.6542 0.5662
vt 0.7175 0.4150
vt 0.7077 0.3883
vt 0.8519 0.5673
vt 0.8347 0.4995
vt 0.8629 0.4952
vt 0.7193 0.5822
vt 0.7107 0.6081
vt 0.6740 0.4454
vt 0.6501 0.4302
vt 0.7717 0.5868
vt 0.3627 0.3538
vt 0.3741 0.3353
vt 0.3373 0.2924
vt 0.3723 0.3137
vt 0.3582 0.2974
vt 0.3173 0.3006
vt 0.3060 0.3191
vt 0.3077 0.3407
vt 0.3217 0.3571
vt 0.5332 0.5460
vt 0.5837 0.9687
vn 0.9511 -0.3090 -0.0000
vn 0.5878 -0.8090 -0.0000
vn 0.0000 -1.0000 0.0000
vn -0.5878 -0.8090 0.0000
vn -0.9511 -0.3090 0.0000
vn -0.9511 0.3090 0.0000
vn -0.5878 0.8090 -0.0000
vn 0.0000 1.0000 0.0000
vn 0.5878 0.8090 0.0000
vn 0.9511 0.3090 0.0000
vn 0.1052 -0.0342 -0.9939
vn 0.0000 0.0000 1.0000
vn 0.1052 0.0342 -0.9939
vn 0.0650 0.0895 -0.9939
vn -0.1052 0.0342 -0.9939
vn -0.0000 0.1106 -0.9939
vn -0.0650 0.0895 -0.9939
vn -0.1052 -0.0342 -0.9939
vn -0.0650 -0.0895 -0.9939
vn -0.0000 -0.1106 -0.9939
vn 0.0650 -0.0895 -0.9939
vn -0.0000 0.0000 -1.0000
usemtl None
s 1
f 1/1/1 2/2/1 3/3/1
f 4/4/2 5/5/2 2/2/2
f 6/6/3 7/7/3 5/5/3
f 8/8/4 9/9/4 7/7/4
f 9/9/5 10/10/5 11/11/5
f 11/11/6 12/12/6 13/13/6
f 13/13/7 14/14/7 15/15/7
f 14/14/8 16/16/8 15/15/8
f 17/17/9 18/18/9 16/16/9
f 19/19/10 3/3/10 18/18/10
f 13/13/11 20/20/11 11/11/11
f 21/21/12 22/22/12 23/23/12
f 24/24/3 25/25/3 26/26/3
f 27/27/12 26/28/12 28/29/12
f 29/30/12 30/31/12 31/32/12
f 32/33/12 22/22/12 33/34/12
f 28/29/12 34/35/12 35/36/12
f 29/30/12 36/37/12 37/38/12
f 38/39/12 33/34/12 39/40/12
f 35/36/12 40/41/12 21/21/12
f 27/27/12 36/37/12 24/42/12
f 41/43/12 39/40/12 30/31/12
f 42/44/12 43/45/12 44/46/12
f 30/47/10 45/48/10 31/49/10
f 22/50/7 44/46/7 33/51/7
f 26/26/4 46/52/4 34/53/4
f 31/49/1 47/54/1 36/55/1
f 33/51/8 48/56/8 39/57/8
f 34/53/5 49/58/5 40/59/5
f 36/60/2 50/61/2 24/24/2
f 39/57/9 51/62/9 30/47/9
f 40/59/6 42/44/6 22/50/6
f 52/63/9 53/64/9 54/65/9
f 46/52/12 52/66/12 54/67/12
f 45/48/12 55/68/12 47/54/12
f 44/46/12 56/69/12 48/56/12
f 46/52/12 57/70/12 49/58/12
f 50/61/12 55/71/12 58/72/12
f 48/56/12 59/73/12 51/62/12
f 49/58/12 60/74/12 42/44/12
f 50/61/12 52/66/12 25/25/12
f 45/48/12 59/73/12 61/75/12
f 62/76/12 63/77/12 64/78/12
f 61/79/6 65/80/6 55/81/6
f 43/82/3 63/77/3 56/83/3
f 54/65/10 66/84/10 57/85/10
f 55/86/7 67/87/7 58/88/7
f 56/83/4 68/89/4 59/90/4
f 57/85/1 69/91/1 60/92/1
f 58/88/8 62/76/8 52/63/8
f 59/90/5 70/93/5 61/79/5
f 60/92/2 64/78/2 43/82/2
f 9/9/13 20/20/13 71/94/13
f 9/9/14 72/95/14 7/7/14
f 2/2/15 73/96/15 3/3/15
f 7/7/16 74/97/16 5/5/16
f 2/2/17 74/97/17 75/98/17
f 3/3/18 76/99/18 18/18/18
f 18/18/19 77/100/19 16/16/19
f 16/16/20 78/101/20 15/15/20
f 13/13/21 78/101/21 79/102/21
f 72/95/22 78/101/22 76/99/22
f 1/1/1 4/4/1 2/2/1
f 4/4/2 6/6/2 5/5/2
f 6/6/3 8/8/3 7/7/3
f 8/8/4 80/103/4 9/9/4
f 9/9/5 80/103/5 10/10/5
f 11/11/6 10/10/6 12/12/6
f 13/13/7 12/12/7 14/14/7
f 14/14/8 17/17/8 16/16/8
f 17/17/9 19/19/9 18/18/9
f 19/19/10 1/1/10 3/3/10
f 13/13/11 79/102/11 20/20/11
f 21/21/12 40/41/12 22/22/12
f 24/24/3 50/61/3 25/25/3
f 27/27/12 24/42/12 26/28/12
f 29/30/12 41/43/12 30/31/12
f 32/33/12 23/23/12 22/22/12
f 28/29/12 26/28/12 34/35/12
f 29/30/12 31/32/12 36/37/12
f 38/39/12 32/33/12 33/34/12
f 35/36/12 34/35/12 40/41/12
f 27/27/12 37/38/12 36/37/12
f 41/43/12 38/39/12 39/40/12
f 42/44/12 60/74/12 43/45/12
f 30/47/10 51/62/10 45/48/10
f 22/50/7 42/44/7 44/46/7
f 26/26/4 25/25/4 46/52/4
f 31/49/1 45/48/1 47/54/1
f 33/51/8 44/46/8 48/56/8
f 34/53/5 46/52/5 49/58/5
f 36/60/2 47/104/2 50/61/2
f 39/57/9 48/56/9 51/62/9
f 40/59/6 49/58/6 42/44/6
f 52/63/9 62/76/9 53/64/9
f 46/52/12 25/25/12 52/66/12
f 45/48/12 61/75/12 55/68/12
f 44/46/12 43/45/12 56/69/12
f 46/52/12 54/67/12 57/70/12
f 50/61/12 47/104/12 55/71/12
f 48/56/12 56/69/12 59/73/12
f 49/58/12 57/70/12 60/74/12
f 50/61/12 58/72/12 52/66/12
f 45/48/12 51/62/12 59/73/12
f 64/78/12 69/91/12 66/84/12
f 66/84/12 53/64/12 62/76/12
f 62/76/12 67/87/12 65/80/12
f 65/80/12 70/93/12 62/76/12
f 68/89/12 63/77/12 62/76/12
f 64/78/12 66/84/12 62/76/12
f 62/76/12 70/93/12 68/89/12
f 61/79/6 70/93/6 65/80/6
f 43/82/3 64/78/3 63/77/3
f 54/65/10 53/64/10 66/84/10
f 55/86/7 65/80/7 67/87/7
f 56/83/4 63/77/4 68/89/4
f 57/85/1 66/84/1 69/91/1
f 58/88/8 67/87/8 62/76/8
f 59/90/5 68/89/5 70/93/5
f 60/92/2 69/91/2 64/78/2
f 9/9/13 11/11/13 20/20/13
f 9/9/14 71/94/14 72/95/14
f 2/2/15 75/98/15 73/96/15
f 7/7/16 72/95/16 74/97/16
f 2/2/17 5/5/17 74/97/17
f 3/3/18 73/96/18 76/99/18
f 18/18/19 76/99/19 77/100/19
f 16/16/20 77/100/20 78/101/20
f 13/13/21 15/15/21 78/101/21
f 76/99/22 73/96/22 72/95/22
f 75/98/22 74/97/22 72/95/22
f 72/95/22 71/94/22 78/101/22
f 20/20/22 79/102/22 78/101/22
f 78/101/22 77/100/22 76/99/22
f 73/96/22 75/98/22 72/95/22
f 71/94/22 20/20/22 78/101/22
