# Blender v2.78 (sub 0) OBJ File: ''
# www.blender.org
mtllib Couch.mtl
o Couch
v -0.544544 0.967362 2.249999
v -0.545945 0.958503 2.249999
v 0.055047 1.088319 2.244096
v 1.503151 1.088319 -2.249998
v 0.055049 1.088319 -2.255901
v 1.503151 0.645710 -2.249999
v 1.503151 1.088319 2.249999
v 1.503151 0.645709 2.250000
v -0.013539 0.645709 2.249999
v 0.014034 1.088016 2.244096
v 0.014034 1.088016 -2.255901
v -0.026789 1.087110 2.244096
v -0.026787 1.087110 -2.255901
v -0.067229 1.085604 2.244096
v -0.067229 1.085604 -2.255901
v -0.107099 1.083505 2.244096
v -0.107099 1.083506 -2.255901
v -0.146213 1.080823 2.244096
v -0.146213 1.080824 -2.255901
v -0.184389 1.077571 2.244096
v -0.184389 1.077572 -2.255901
v -0.221448 1.073764 2.244096
v -0.221448 1.073765 -2.255901
v -0.257219 1.069420 2.244096
v -0.257219 1.069421 -2.255901
v -0.291534 1.064559 2.244096
v -0.291532 1.064559 -2.255901
v -0.324232 1.059202 2.244096
v -0.324231 1.059203 -2.255901
v -0.355163 1.053376 2.244096
v -0.355161 1.053377 -2.255901
v -0.384180 1.047109 2.244096
v -0.411148 1.040429 -2.255901
v -0.411150 1.040428 2.244096
v -0.435945 1.033365 2.244096
v -0.435945 1.033365 -2.255901
v -0.458453 1.025953 2.244096
v -0.458453 1.025954 -2.255901
v -0.478565 1.018227 2.244096
v -0.478565 1.018227 -2.255901
v -0.496189 1.010221 2.244096
v -0.496189 1.010222 -2.255901
v -0.511245 1.001976 2.244096
v -0.523659 0.993527 -2.250000
v -0.523659 0.993526 2.249999
v -0.533375 0.984915 2.249999
v -0.533375 0.984915 -2.250000
v -0.540348 0.976180 2.249999
v -0.540348 0.976181 -2.250000
v -0.544544 0.967362 -2.250000
v -0.545946 0.760710 -2.249998
v -0.527803 0.730945 2.249999
v -0.545945 0.760710 2.249999
v -0.527803 0.730946 -2.249999
v -0.474616 0.703210 2.249999
v -0.474616 0.703211 -2.249999
v -0.390007 0.679392 2.249999
v -0.390007 0.679392 -2.249999
v -0.279741 0.661117 2.249999
v -0.279743 0.661118 -2.249999
v -0.151335 0.649627 2.249999
v -0.151337 0.649628 -2.249999
v -0.013539 0.645710 -2.249999
v -0.384180 1.047110 -2.255901
v -0.511245 1.001976 -2.255901
v -0.545945 0.958503 -2.250000
v 1.955670 0.699647 -2.249999
v 2.030659 2.260330 2.250000
v 1.955670 0.699646 2.249999
v 1.588824 2.281561 2.249999
v 1.513834 0.720876 -2.250000
v 1.513834 0.720874 2.249997
v 2.030658 2.260333 -2.249998
v 1.588824 2.281562 -2.249998
v -0.356633 -0.002792 2.710340
v 1.893366 1.572208 2.710340
v -0.356633 1.572208 2.710340
v 1.893366 1.572208 2.260340
v -0.356633 -0.002792 2.260339
v -0.356634 1.572207 2.260340
v 1.893366 -0.002792 2.710340
v 1.893366 -0.002792 2.260339
v -0.356634 1.599810 -2.268412
v 1.893366 0.024303 -2.268413
v 1.893365 1.599812 -2.268412
v 1.893365 1.599812 -2.718412
v -0.356633 0.024303 -2.718413
v -0.356634 1.599810 -2.718412
v -0.356634 0.024303 -2.268413
v 1.893366 0.024303 -2.718413
v -0.341937 0.273974 -2.249999
v 1.908063 0.273973 2.250000
v -0.341935 0.273973 2.249999
v 1.908063 0.648973 2.249999
v -0.341935 0.648974 -2.250000
v -0.341935 0.648973 2.249999
v 1.908063 0.273974 -2.249999
v 1.908063 0.648974 -2.249999
vt 0.1453 0.7710
vt 0.1452 0.7674
vt 0.1845 0.8201
vt 0.3271 0.8201
vt 0.4205 0.9998
vt 0.3271 1.0000
vt 0.4416 0.8199
vt 0.2944 0.6400
vt 0.4416 0.6400
vt 0.0258 1.0000
vt 0.1243 0.8201
vt 0.1243 1.0000
vt 0.3244 0.8201
vt 0.3244 1.0000
vt 0.3217 0.8201
vt 0.3217 1.0000
vt 0.3190 0.8201
vt 0.3190 1.0000
vt 0.3164 0.8201
vt 0.3164 1.0000
vt 0.3137 0.8201
vt 0.3137 1.0000
vt 0.3110 0.8201
vt 0.3110 1.0000
vt 0.3084 0.8201
vt 0.3084 1.0000
vt 0.3059 0.8201
vt 0.3059 1.0000
vt 0.3034 0.8201
vt 0.3034 1.0000
vt 0.3010 0.8201
vt 0.3010 1.0000
vt 0.2987 0.8201
vt 0.2987 1.0000
vt 0.2965 0.8201
vt 0.2944 1.0000
vt 0.2944 0.8201
vt 0.8411 0.8199
vt 0.8389 0.6400
vt 0.8411 0.6400
vt 0.8389 0.8199
vt 0.8367 0.6400
vt 0.8367 0.8199
vt 0.8343 0.6400
vt 0.8343 0.8199
vt 0.8318 0.6400
vt 0.8318 0.8199
vt 0.8293 0.6400
vt 0.8266 0.8197
vt 0.8266 0.6398
vt 0.8238 0.6398
vt 0.8238 0.8197
vt 0.8210 0.6398
vt 0.8210 0.8197
vt 0.8181 0.6398
vt 0.8181 0.8197
vt 0.8152 0.6398
vt 0.7147 0.7976
vt 0.7130 0.8004
vt 0.6825 0.8199
vt 0.7500 0.8197
vt 0.7401 0.6398
vt 0.7500 0.6398
vt 0.7401 0.8197
vt 0.7305 0.6398
vt 0.7305 0.8197
vt 0.7219 0.6398
vt 0.0000 0.8201
vt 0.0079 1.0000
vt 0.0000 1.0000
vt 0.0079 0.8201
vt 0.0166 1.0000
vt 0.0166 0.8201
vt 0.2793 0.8201
vt 0.2793 0.6402
vt 0.1819 0.8200
vt 0.1792 0.8196
vt 0.1765 0.8190
vt 0.1739 0.8181
vt 0.1714 0.8171
vt 0.1689 0.8157
vt 0.1664 0.8142
vt 0.1641 0.8124
vt 0.1619 0.8105
vt 0.1597 0.8083
vt 0.1577 0.8059
vt 0.1558 0.8034
vt 0.1540 0.8006
vt 0.1524 0.7978
vt 0.1509 0.7948
vt 0.1496 0.7916
vt 0.1485 0.7884
vt 0.1475 0.7850
vt 0.1467 0.7816
vt 0.1460 0.7781
vt 0.1456 0.7745
vt 0.1452 0.6870
vt 0.1801 0.6402
vt 0.1464 0.6749
vt 0.1499 0.6636
vt 0.1554 0.6539
vt 0.1626 0.6465
vt 0.1710 0.6418
vt 0.4205 0.8199
vt 0.2944 0.8199
vt 0.0258 0.8201
vt 0.2965 1.0000
vt 0.8293 0.8199
vt 0.8152 0.8197
vt 0.5878 0.6400
vt 0.5878 0.8199
vt 0.6961 0.6416
vt 0.7045 0.6463
vt 0.6870 0.6400
vt 0.7117 0.6537
vt 0.7172 0.6634
vt 0.7207 0.6747
vt 0.7219 0.6868
vt 0.7219 0.7671
vt 0.7218 0.7707
vt 0.7215 0.7743
vt 0.7210 0.7779
vt 0.7204 0.7814
vt 0.7196 0.7848
vt 0.7186 0.7882
vt 0.7175 0.7914
vt 0.7161 0.7946
vt 0.7113 0.8032
vt 0.7094 0.8057
vt 0.7074 0.8081
vt 0.7052 0.8102
vt 0.7030 0.8122
vt 0.7006 0.8140
vt 0.6982 0.8155
vt 0.6957 0.8169
vt 0.6932 0.8179
vt 0.6905 0.8188
vt 0.6879 0.8194
vt 0.6852 0.8198
vt 0.7219 0.8197
vt 0.7360 0.0000
vt 0.5888 0.6342
vt 0.5888 0.0000
vt 0.7360 0.0000
vt 0.8832 0.6278
vt 0.7360 0.6278
vt 0.1261 1.0000
vt 0.1557 0.8201
vt 0.1557 1.0000
vt 0.9122 0.6342
vt 0.9411 0.0083
vt 0.9411 0.6425
vt 0.7947 0.8199
vt 0.8220 0.9998
vt 0.7947 0.9998
vt 0.9122 0.0000
vt 0.8832 0.6425
vt 0.8832 0.0083
vt 0.7360 0.6342
vt 0.8832 0.0000
vt 0.1261 0.8201
vt 0.9122 0.0000
vt 0.8220 0.8199
vt 0.9122 0.6342
vt 0.5888 0.6400
vt 0.4416 0.0000
vt 0.5888 0.0000
vt 0.2944 0.6400
vt 0.4416 0.0000
vt 0.4416 0.6400
vt 0.9853 0.6344
vt 1.0000 0.0000
vt 1.0000 0.6344
vt 0.2940 0.6402
vt 0.2793 0.8189
vt 0.2793 0.6402
vt 0.9558 0.0000
vt 0.9706 0.6400
vt 0.9558 0.6400
vt 0.8220 0.9973
vt 0.8368 0.8199
vt 0.8368 0.9973
vt 0.4416 0.6400
vt 0.2944 0.0000
vt 0.9853 0.0000
vt 0.2940 0.8189
vt 0.9706 0.0000
vt 0.8220 0.8199
vt 0.1472 0.6402
vt 0.2944 0.0000
vt 0.2944 0.6402
vt 0.0000 0.6402
vt 0.1472 0.0000
vt 0.1472 0.6402
vt 0.9853 0.0000
vt 0.9706 0.6346
vt 0.9706 0.0000
vt 0.2940 0.8189
vt 0.2793 0.9976
vt 0.2793 0.8189
vt 0.9411 0.6402
vt 0.9558 0.0000
vt 0.9558 0.6402
vt 0.8368 0.9973
vt 0.8515 0.8199
vt 0.8515 0.9973
vt 0.1472 0.0000
vt 0.0000 0.0000
vt 0.9853 0.6346
vt 0.2940 0.9976
vt 0.9411 0.0000
vt 0.8368 0.8199
vt 0.5878 0.8199
vt 0.4416 0.6400
vt 0.5878 0.6400
vt 0.1452 0.6402
vt 0.0000 0.8201
vt 0.0000 0.6402
vt 0.1557 1.0000
vt 0.2793 0.8201
vt 0.2793 1.0000
vt 0.4205 0.9998
vt 0.5453 0.8199
vt 0.5453 0.9998
vt 0.7947 0.9998
vt 0.6700 0.8199
vt 0.7947 0.8199
vt 0.6700 0.8199
vt 0.5453 0.9998
vt 0.5453 0.8199
vt 0.4416 0.8199
vt 0.1452 0.8201
vt 0.1557 0.8201
vt 0.4205 0.8199
vt 0.6700 0.9998
vt 0.6700 0.9998
vn 0.0102 -0.0016 0.9999
vn 0.0076 0.0108 0.9999
vn 0.0093 0.0024 1.0000
vn 0.0000 1.0000 0.0000
vn -0.0073 1.0000 0.0000
vn 1.0000 -0.0000 0.0000
vn 0.0000 -1.0000 -0.0000
vn -0.0074 1.0000 0.0000
vn -0.0222 0.9998 0.0000
vn -0.0372 0.9993 0.0000
vn -0.0526 0.9986 0.0000
vn -0.0684 0.9977 0.0000
vn -0.0849 0.9964 0.0000
vn -0.1022 0.9948 0.0000
vn -0.1206 0.9927 0.0000
vn -0.1403 0.9901 0.0000
vn -0.1617 0.9868 0.0000
vn -0.1851 0.9827 0.0000
vn -0.2111 0.9775 0.0000
vn -0.2405 0.9707 0.0000
vn -0.2740 0.9617 0.0000
vn -0.3128 0.9498 0.0000
vn -0.3586 0.9335 0.0000
vn -0.4136 0.9105 0.0000
vn -0.4804 0.8771 0.0000
vn -0.4803 0.8771 0.0000
vn -0.5627 0.8267 0.0000
vn -0.6633 0.7483 0.0000
vn -0.7815 0.6239 0.0000
vn -0.9030 0.4296 0.0000
vn -0.9877 0.1562 0.0000
vn -0.0000 0.0000 -1.0000
vn -0.8539 -0.5205 -0.0000
vn -0.8539 -0.5204 0.0000
vn -0.4624 -0.8867 -0.0000
vn -0.2710 -0.9626 -0.0000
vn -0.1635 -0.9865 -0.0000
vn -0.0891 -0.9960 -0.0000
vn -0.0284 -0.9996 -0.0000
vn -1.0000 0.0000 0.0000
vn -0.0041 0.0000 1.0000
vn -0.0031 0.0031 1.0000
vn -0.0009 0.0104 0.9999
vn 0.0000 0.0000 1.0000
vn 0.0125 -0.0141 0.9998
vn 0.0123 -0.0130 0.9998
vn 0.0127 -0.0129 0.9998
vn 0.0116 -0.0085 0.9999
vn 0.0109 -0.0052 0.9999
vn -0.0000 0.0133 0.9999
vn 0.0072 0.0122 0.9999
vn -0.1015 0.6656 0.7394
vn 0.0041 0.0000 -1.0000
vn -0.0102 0.0016 -0.9999
vn -0.0108 0.0047 -0.9999
vn -0.0124 0.0118 -0.9999
vn -0.0116 0.0085 -0.9999
vn -0.0123 0.0130 -0.9998
vn 0.1015 -0.6655 -0.7395
vn -0.0000 0.0003 -1.0000
vn 0.0000 -0.0133 -0.9999
vn -0.0068 -0.0120 -0.9999
vn -0.0125 0.0141 -0.9998
vn -0.0072 -0.0122 -0.9999
vn 0.9988 -0.0480 -0.0000
vn -0.9988 0.0480 0.0000
vn -0.0480 -0.9988 -0.0000
vn 0.0480 0.9988 0.0000
usemtl None
s 1
f 1/1/1 2/2/2 3/3/3
f 3/4/4 4/5/4 5/6/5
f 6/7/6 7/8/6 8/9/6
f 9/10/7 6/11/7 8/12/7
f 5/6/5 10/13/8 3/4/4
f 11/14/9 12/15/9 10/13/9
f 13/16/10 14/17/10 12/15/10
f 15/18/11 16/19/11 14/17/11
f 17/20/12 18/21/12 16/19/12
f 19/22/13 20/23/13 18/21/13
f 21/24/14 22/25/14 20/23/14
f 23/26/15 24/27/15 22/25/15
f 25/28/16 26/29/16 24/27/16
f 27/30/17 28/31/17 26/29/17
f 29/32/18 30/33/18 28/31/18
f 31/34/19 32/35/19 30/33/19
f 32/35/20 33/36/20 34/37/20
f 33/38/21 35/39/21 34/40/21
f 36/41/22 37/42/22 35/39/22
f 38/43/23 39/44/23 37/42/23
f 40/45/24 41/46/24 39/44/24
f 42/47/25 43/48/26 41/46/26
f 43/48/27 44/49/27 45/50/27
f 44/49/28 46/51/28 45/50/28
f 47/52/29 48/53/29 46/51/29
f 49/54/30 1/55/30 48/53/30
f 50/56/31 2/57/31 1/55/31
f 36/58/32 33/59/32 5/60/32
f 51/61/33 52/62/34 53/63/34
f 54/64/35 55/65/35 52/62/35
f 56/66/36 57/67/36 55/65/36
f 58/68/37 59/69/37 57/70/37
f 60/71/38 61/72/38 59/69/38
f 62/73/39 9/10/39 61/72/39
f 2/57/40 51/61/40 53/63/40
f 7/74/41 3/3/42 8/75/43
f 10/76/44 12/77/44 14/78/44
f 14/78/44 16/79/44 3/3/44
f 18/80/44 20/81/44 3/3/44
f 22/82/44 24/83/44 3/3/44
f 26/84/44 28/85/44 3/3/44
f 30/86/44 32/87/44 3/3/44
f 34/88/44 35/89/44 3/3/44
f 37/90/44 39/91/44 3/3/44
f 41/92/44 43/93/44 3/3/44
f 45/94/45 46/95/46 3/3/47
f 48/96/48 1/1/49 3/3/47
f 2/2/44 53/97/44 9/98/44
f 52/99/44 55/100/44 9/98/44
f 57/101/44 59/102/44 9/98/44
f 61/103/44 9/98/44 59/102/44
f 8/75/43 3/3/42 9/98/50
f 10/76/44 14/78/44 3/3/44
f 18/80/44 3/3/44 16/79/44
f 26/84/44 3/3/44 24/83/44
f 34/88/44 3/3/44 32/87/44
f 41/92/44 3/3/44 39/91/44
f 48/96/48 3/3/47 46/95/46
f 55/100/44 57/101/44 9/98/44
f 9/98/51 3/3/3 2/2/2
f 20/81/44 22/82/44 3/3/44
f 30/86/44 3/3/44 28/85/44
f 45/94/52 3/3/52 43/93/52
f 52/99/44 9/98/44 53/97/44
f 35/89/44 37/90/44 3/3/44
f 3/4/4 7/104/4 4/5/4
f 6/7/6 4/105/6 7/8/6
f 9/10/7 63/106/7 6/11/7
f 5/6/5 11/14/8 10/13/8
f 11/14/9 13/16/9 12/15/9
f 13/16/10 15/18/10 14/17/10
f 15/18/11 17/20/11 16/19/11
f 17/20/12 19/22/12 18/21/12
f 19/22/13 21/24/13 20/23/13
f 21/24/14 23/26/14 22/25/14
f 23/26/15 25/28/15 24/27/15
f 25/28/16 27/30/16 26/29/16
f 27/30/17 29/32/17 28/31/17
f 29/32/18 31/34/18 30/33/18
f 31/34/19 64/107/19 32/35/19
f 32/35/20 64/107/20 33/36/20
f 33/38/21 36/41/21 35/39/21
f 36/41/22 38/43/22 37/42/22
f 38/43/23 40/45/23 39/44/23
f 40/45/24 42/47/24 41/46/24
f 42/47/25 65/108/25 43/48/26
f 43/48/27 65/108/27 44/49/27
f 44/49/28 47/52/28 46/51/28
f 47/52/29 49/54/29 48/53/29
f 49/54/30 50/56/30 1/55/30
f 50/56/31 66/109/31 2/57/31
f 6/110/53 5/60/53 4/111/53
f 62/112/32 60/113/32 63/114/32
f 58/115/32 56/116/32 63/114/32
f 54/117/32 51/118/32 63/114/32
f 66/119/54 50/120/55 5/60/56
f 49/121/57 47/122/58 5/60/56
f 44/123/59 65/124/59 5/60/59
f 42/125/32 40/126/32 5/60/32
f 38/127/32 36/58/32 5/60/32
f 33/59/32 64/128/32 5/60/32
f 31/129/32 29/130/32 5/60/32
f 27/131/32 25/132/32 5/60/32
f 23/133/32 21/134/32 5/60/32
f 19/135/32 17/136/32 5/60/32
f 15/137/60 13/138/32 11/139/32
f 11/139/32 5/60/32 15/137/60
f 6/110/61 63/114/62 5/60/62
f 60/113/32 58/115/32 63/114/32
f 51/118/32 66/119/32 63/114/32
f 47/122/58 44/123/63 5/60/56
f 40/126/32 38/127/32 5/60/32
f 64/128/32 31/129/32 5/60/32
f 25/132/32 23/133/32 5/60/32
f 17/136/32 15/137/60 5/60/32
f 5/60/56 50/120/55 49/121/57
f 56/116/32 54/117/32 63/114/32
f 65/124/32 42/125/32 5/60/32
f 29/130/32 27/131/32 5/60/32
f 19/135/32 5/60/32 21/134/32
f 66/119/64 5/60/62 63/114/62
f 51/61/33 54/64/33 52/62/34
f 54/64/35 56/66/35 55/65/35
f 56/66/36 58/140/36 57/67/36
f 58/68/37 60/71/37 59/69/37
f 60/71/38 62/73/38 61/72/38
f 62/73/39 63/106/39 9/10/39
f 2/57/40 66/109/40 51/61/40
f 67/141/65 68/142/65 69/143/65
f 70/144/66 71/145/66 72/146/66
f 72/147/67 67/148/67 69/149/67
f 71/150/32 73/151/32 67/152/32
f 73/153/68 70/154/68 68/155/68
f 69/156/44 70/157/44 72/158/44
f 67/141/65 73/159/65 68/142/65
f 70/144/66 74/160/66 71/145/66
f 72/147/67 71/161/67 67/148/67
f 71/150/32 74/162/32 73/151/32
f 73/153/68 74/163/68 70/154/68
f 69/156/44 68/164/44 70/157/44
f 75/165/44 76/166/44 77/167/44
f 78/168/32 79/169/32 80/170/32
f 80/171/40 75/172/40 77/173/40
f 79/174/7 81/175/7 75/176/7
f 81/177/6 78/178/6 76/179/6
f 77/180/4 78/181/4 80/182/4
f 75/165/44 81/183/44 76/166/44
f 78/168/32 82/184/32 79/169/32
f 80/171/40 79/185/40 75/172/40
f 79/174/7 82/186/7 81/175/7
f 81/177/6 82/187/6 78/178/6
f 77/180/4 76/188/4 78/181/4
f 83/189/44 84/190/44 85/191/44
f 86/192/32 87/193/32 88/194/32
f 88/195/40 89/196/40 83/197/40
f 87/198/7 84/199/7 89/200/7
f 90/201/6 85/202/6 84/203/6
f 83/204/4 86/205/4 88/206/4
f 83/189/44 89/207/44 84/190/44
f 86/192/32 90/208/32 87/193/32
f 88/195/40 87/209/40 89/196/40
f 87/198/7 90/210/7 84/199/7
f 90/201/6 86/211/6 85/202/6
f 83/204/4 85/212/4 86/205/4
f 91/213/7 92/214/7 93/215/7
f 94/216/4 95/217/4 96/218/4
f 96/219/40 91/220/40 93/221/40
f 95/222/32 97/223/32 91/224/32
f 97/225/6 94/226/6 92/227/6
f 93/228/44 94/229/44 96/230/44
f 91/213/7 97/231/7 92/214/7
f 94/216/4 98/232/4 95/217/4
f 96/219/40 95/233/40 91/220/40
f 95/222/32 98/234/32 97/223/32
f 97/225/6 98/235/6 94/226/6
f 93/228/44 92/236/44 94/229/44
