# Blender v2.78 (sub 0) OBJ File: 'PalmTree2.blend'
# www.blender.org
mtllib PalmTree2.mtl
o Cylinder.013_Cylinder.005
v 0.000000 8.387033 -0.222456
v 0.108056 6.941843 -0.117305
v -0.256449 6.941843 -0.382134
v 0.121512 8.387033 0.151519
v -0.031173 6.941843 0.311196
v -0.121512 8.387033 0.151519
v -0.481726 6.941843 0.311196
v -0.196610 8.387033 -0.079611
v -0.620955 6.941843 -0.117305
v 0.771955 -0.057920 -0.208784
v -0.477094 -0.057920 0.698703
v -0.771955 -0.057920 -0.208785
v -0.407827 1.836057 -0.165756
v 0.000000 -0.057920 -0.769642
v -0.144711 3.320061 -0.536093
v 0.172475 1.836057 -0.587370
v -0.148423 5.259820 -0.136954
v -0.671099 3.320061 -0.153650
v 0.303600 5.259820 -0.465368
v -0.470037 3.320061 0.465156
v -0.186171 1.836057 0.516430
v 0.024234 5.259820 0.394430
v 0.477094 -0.057920 0.698703
v 0.180615 3.320061 0.465156
v 0.531122 1.836057 0.516431
v 0.582965 5.259820 0.394430
v 0.381677 3.320061 -0.153650
v 0.752778 1.836057 -0.165756
v 0.755622 5.259820 -0.136954
v 0.196610 8.387033 -0.079611
v 4.208910 8.927658 0.000000
v 4.858971 8.501565 -0.616048
v 4.208910 8.572748 -0.616048
v 2.005417 8.939085 0.000000
v 0.964431 8.504568 -0.616048
v 0.018577 8.436638 0.000000
v 2.005417 8.611080 -0.616048
v 2.005417 8.611080 0.616049
v 0.964431 8.504568 0.616049
v 4.858971 8.501565 0.616049
v 4.208910 8.572748 0.616049
v 3.415501 8.927658 -2.460454
v 3.580406 8.501566 -3.340739
v 3.054019 8.572749 -2.959300
v 1.631221 8.939085 -1.167501
v 0.426801 8.504568 -1.055523
v 0.022377 8.436638 -0.001674
v 1.269739 8.611080 -1.666346
v 1.992702 8.611080 -0.668656
v 1.149764 8.504568 -0.057832
v 4.303369 8.501565 -2.343048
v 3.776982 8.572748 -1.961609
v 1.209763 8.927659 -4.024668
v 0.802745 8.501566 -4.822433
v 0.618872 8.572749 -4.198920
v 0.586495 8.939085 -1.911159
v -0.298843 8.504568 -1.086937
v 0.024508 8.436638 -0.005456
v -0.004396 8.611080 -2.085411
v 1.177385 8.611080 -1.736907
v 0.882938 8.504568 -0.738432
v 1.984526 8.501566 -4.473929
v 1.800654 8.572749 -3.850415
v -1.702162 8.927659 -3.828483
v -2.531272 8.501566 -4.167114
v -2.263531 8.572749 -3.574751
v -0.794607 8.939085 -1.820567
v -0.927225 8.504568 -0.618244
v 0.023714 8.436638 -0.010074
v -1.355976 8.611080 -1.566834
v -0.233238 8.611080 -2.074299
v 0.195514 8.504568 -1.125709
v -1.408534 8.501566 -4.674578
v -1.140793 8.572749 -4.082216
v -3.917645 8.927658 -1.447600
v -4.739312 8.501565 -1.091289
v -4.128523 8.572748 -0.868769
v -1.847269 8.939085 -0.693328
v -1.080049 8.504568 0.241840
v 0.019542 8.436638 -0.013219
v -2.058146 8.611080 -0.114497
v -1.636391 8.611080 -1.272160
v -0.658293 8.504568 -0.915823
v -4.317556 8.501565 -2.248952
v -3.706767 8.572748 -2.026432
v -4.013155 8.927658 1.140176
v -4.468589 8.501565 1.911327
v -3.843626 8.572748 1.732440
v -1.894735 8.939085 0.533806
v -0.724413 8.504568 0.839605
v 0.015395 8.436638 -0.012944
v -1.725207 8.611080 1.126070
v -2.064263 8.611080 -0.058457
v -1.063469 8.504568 -0.344921
v -4.807645 8.501565 0.726800
v -4.182682 8.572748 0.547913
v -2.856943 8.927657 3.042892
v -2.853157 8.501564 3.938480
v -2.408003 8.572747 3.464754
v -1.348017 8.939085 1.437112
v -0.186223 8.504568 1.100365
v 0.012547 8.436638 -0.010782
v -0.899077 8.611080 1.858975
v -1.796958 8.611080 1.015250
v -1.084103 8.504568 0.256640
v -3.751037 8.501564 3.094756
v -3.305884 8.572748 2.621029
v -0.661400 8.927657 4.128911
v -0.157678 8.501564 4.869422
v -0.053339 8.572747 4.227789
v -0.307725 8.939085 1.953985
v 0.467421 8.504568 1.025376
v 0.011176 8.436638 -0.007095
v 0.300336 8.611080 2.052866
v -0.915786 8.611080 1.855105
v -0.748701 8.504568 0.827616
v -1.373800 8.501564 4.671662
v -1.269461 8.572747 4.030030
v 1.703182 8.927657 3.830554
v 2.529184 8.501564 4.176698
v 2.266832 8.572747 3.581929
v 0.813894 8.939085 1.814481
v 0.957422 8.504568 0.613412
v 0.012044 8.436638 -0.003366
v 1.377544 8.611080 1.565855
v 0.250245 8.611080 2.063107
v -0.169877 8.504568 1.110663
v 1.401885 8.501564 4.673948
v 1.139532 8.572747 4.079179
v 3.547987 8.927658 2.252314
v 4.427319 8.501565 2.082402
v 3.879214 8.572748 1.732887
v 1.690091 8.939085 1.067573
v 1.143603 8.504568 -0.011555
v 0.014870 8.436638 -0.000681
v 2.021319 8.611080 0.548146
v 1.358864 8.611080 1.586999
v 0.481148 8.504568 1.027299
v 3.764863 8.501564 3.121255
v 3.216759 8.572748 2.771740
v 6.861363 8.082609 0.000000
v 5.563325 8.082610 -4.016846
v 1.960021 8.082610 -6.568800
v -2.794630 8.082610 -6.245511
v -6.409858 8.082609 -2.355554
v -6.563199 8.082609 1.870093
v -4.673311 8.082608 4.975846
v -1.087136 8.082608 6.746973
v 2.773661 8.082608 6.257400
v 5.784425 8.082608 3.678444
vt 0.5633 0.6407
vt 0.5519 0.5315
vt 0.5855 0.5314
vt 0.8795 0.1088
vt 0.8982 0.0000
vt 0.9131 0.1088
vt 0.0457 0.1100
vt 0.0524 0.0000
vt 0.0793 0.1100
vt 0.4213 0.5178
vt 0.4476 0.5087
vt 0.4476 0.5271
vt 0.9564 0.1109
vt 0.9776 0.0000
vt 0.9900 0.1109
vt 0.3984 0.6409
vt 0.3877 0.5307
vt 0.4213 0.5303
vt 0.4760 0.6993
vt 0.5855 0.6631
vt 0.5855 0.7354
vt 0.4026 0.1444
vt 0.3501 0.0007
vt 0.4213 0.0000
vt 0.3716 0.2565
vt 0.3491 0.1449
vt 0.3907 0.4043
vt 0.4201 0.2560
vt 0.3490 0.4047
vt 0.9288 0.6409
vt 0.9886 0.4963
vt 1.0000 0.6409
vt 0.9452 0.3850
vt 0.9351 0.4963
vt 0.9805 0.2364
vt 0.9938 0.3850
vt 0.9389 0.2364
vt 0.0082 0.6412
vt 0.0575 0.4970
vt 0.0793 0.6411
vt 0.0301 0.3846
vt 0.0040 0.4971
vt 0.0417 0.2376
vt 0.0786 0.3846
vt 0.0000 0.2376
vt 0.8577 0.6409
vt 0.9147 0.4977
vt 0.9288 0.6409
vt 0.8706 0.3838
vt 0.8612 0.4977
vt 0.9048 0.2390
vt 0.9191 0.3838
vt 0.8632 0.2390
vt 0.5675 0.1435
vt 0.5143 0.0002
vt 0.5855 0.0000
vt 0.5362 0.2568
vt 0.5140 0.1437
vt 0.5550 0.4026
vt 0.5847 0.2567
vt 0.5133 0.4027
vt 0.5452 0.6408
vt 0.8801 0.0000
vt 0.0343 0.0000
vt 0.4313 0.5327
vt 0.4313 0.5029
vt 0.9595 0.0000
vt 0.3803 0.6411
vt 0.5178 0.7577
vt 0.5178 0.6408
vt 0.2952 0.2016
vt 0.3490 0.1522
vt 0.3473 0.2015
vt 0.2949 0.3686
vt 0.3490 0.4472
vt 0.3074 0.5187
vt 0.3464 0.3685
vt 0.2597 0.3681
vt 0.2623 0.4469
vt 0.2623 0.1519
vt 0.2606 0.2012
vt 0.1173 0.2093
vt 0.1700 0.1573
vt 0.1686 0.2066
vt 0.1171 0.3729
vt 0.1700 0.4462
vt 0.1271 0.5128
vt 0.1679 0.3706
vt 0.0793 0.3655
vt 0.0815 0.4411
vt 0.0815 0.1522
vt 0.0800 0.2015
vt 0.6292 0.2108
vt 0.6777 0.1551
vt 0.6773 0.2035
vt 0.6291 0.3692
vt 0.6777 0.4347
vt 0.6324 0.4996
vt 0.6770 0.3625
vt 0.5855 0.3599
vt 0.5862 0.4320
vt 0.5862 0.1525
vt 0.5857 0.2009
vt 0.4630 0.2922
vt 0.4225 0.3509
vt 0.4217 0.3022
vt 0.4629 0.1326
vt 0.4225 0.0690
vt 0.4687 0.0000
vt 0.4213 0.1420
vt 0.5121 0.1377
vt 0.5133 0.0648
vt 0.5133 0.3466
vt 0.5125 0.2980
vt 0.2061 0.3122
vt 0.1725 0.3658
vt 0.1709 0.3163
vt 0.2058 0.1460
vt 0.1725 0.0723
vt 0.2177 0.0000
vt 0.1700 0.1499
vt 0.2572 0.1469
vt 0.2597 0.0693
vt 0.2597 0.3628
vt 0.2580 0.3133
vt 0.7138 0.3194
vt 0.6803 0.3637
vt 0.6786 0.3153
vt 0.7136 0.1534
vt 0.6803 0.0703
vt 0.7255 0.0000
vt 0.6777 0.1495
vt 0.7649 0.1525
vt 0.7674 0.0733
vt 0.7674 0.3668
vt 0.7657 0.3183
vt 0.6249 0.8160
vt 0.5873 0.8533
vt 0.5861 0.8069
vt 0.6247 0.6546
vt 0.5873 0.5676
vt 0.6332 0.4996
vt 0.5855 0.6459
vt 0.6750 0.6512
vt 0.6768 0.5728
vt 0.6768 0.8585
vt 0.6756 0.8121
vt 0.2124 0.8303
vt 0.1679 0.8656
vt 0.1677 0.8208
vt 0.2124 0.6730
vt 0.1679 0.5870
vt 0.2140 0.5183
vt 0.1675 0.6641
vt 0.2593 0.6655
vt 0.2597 0.5883
vt 0.2597 0.8669
vt 0.2595 0.8222
vt 0.7196 0.6860
vt 0.7698 0.6464
vt 0.7690 0.6918
vt 0.7194 0.8451
vt 0.7698 0.9280
vt 0.7251 1.0000
vt 0.7686 0.8503
vt 0.6777 0.8545
vt 0.6789 0.9322
vt 0.6789 0.6506
vt 0.6781 0.6961
vt 0.8045 0.1878
vt 0.8577 0.1421
vt 0.8562 0.1898
vt 0.8043 0.3522
vt 0.8577 0.4330
vt 0.8152 0.5067
vt 0.8554 0.3539
vt 0.7674 0.3585
vt 0.7697 0.4375
vt 0.7697 0.1467
vt 0.7682 0.1944
vt 0.3160 0.0000
vt 0.1340 0.0000
vt 0.6347 0.0000
vt 0.4727 0.5029
vt 0.2260 0.5183
vt 0.7337 0.5131
vt 0.6391 0.9951
vt 0.2152 0.9991
vt 0.7291 0.5131
vt 0.8227 0.0000
vn 0.5877 -0.0149 -0.8089
vn 0.9490 -0.0662 0.3083
vn 0.0000 0.1098 0.9940
vn 0.0000 1.0000 0.0000
vn -0.9179 0.2617 0.2982
vn -0.5771 0.1902 -0.7943
vn 0.0000 -1.0000 -0.0000
vn -0.5828 0.1303 -0.8021
vn -0.5850 -0.0972 -0.8052
vn -0.5799 0.1631 -0.7982
vn -0.5808 -0.1538 -0.7994
vn -0.9367 0.1732 0.3043
vn -0.9374 -0.1688 0.3046
vn -0.9219 0.2458 0.2995
vn -0.9180 -0.2614 0.2983
vn -0.0000 0.0958 0.9954
vn -0.0000 0.0355 0.9994
vn -0.0000 0.0345 0.9994
vn 0.0000 0.0365 0.9993
vn 0.0000 0.0494 0.9988
vn -0.0000 0.0491 0.9988
vn 0.9511 0.0026 0.3090
vn 0.9258 0.2291 0.3008
vn 0.9350 -0.1829 0.3038
vn 0.8941 0.3408 0.2905
vn 0.5876 0.0243 -0.8088
vn 0.5810 0.1518 -0.7996
vn 0.5845 -0.1058 -0.8045
vn 0.5721 0.2295 -0.7874
vn 0.0945 0.8626 -0.4970
vn -0.2367 0.9361 -0.2602
vn 0.0046 0.8827 -0.4700
vn 0.0046 0.8827 0.4700
vn -0.2367 0.9361 0.2602
vn 0.0945 0.8626 0.4970
vn -0.2151 0.8626 -0.4578
vn -0.3444 0.9361 -0.0718
vn -0.2721 0.8827 -0.3832
vn 0.2795 0.8827 0.3779
vn -0.0390 0.9361 0.3496
vn 0.3681 0.8626 0.3470
vn -0.4499 0.8626 -0.2312
vn -0.3166 0.9361 0.1534
vn -0.4495 0.8827 -0.1373
vn 0.4521 0.8827 0.1285
vn 0.1826 0.9361 0.3007
vn 0.5034 0.8626 0.0500
vn -0.4918 0.8626 0.1186
vn -0.1396 0.9361 0.3229
vn -0.4301 0.8827 0.1894
vn 0.4264 0.8827 -0.1977
vn 0.3346 0.9361 0.1085
vn 0.4139 0.8626 -0.2908
vn -0.2589 0.8626 0.4346
vn 0.1333 0.9361 0.3255
vn -0.1652 0.8827 0.4400
vn 0.1566 0.8827 -0.4431
vn 0.3115 0.9361 -0.1635
vn 0.0814 0.8626 -0.4993
vn 0.0459 0.8626 0.5038
vn 0.2992 0.9361 0.1850
vn 0.1249 0.8827 0.4531
vn -0.1337 0.8827 -0.4506
vn 0.1560 0.9361 -0.3153
vn -0.2276 0.8626 -0.4518
vn 0.2975 0.8626 0.4091
vn 0.3517 0.9361 0.0057
vn 0.3393 0.8827 0.3252
vn -0.3456 0.8827 -0.3185
vn -0.0275 0.9361 -0.3507
vn -0.4268 0.8626 -0.2715
vn 0.4754 0.8626 0.1730
vn 0.2949 0.9361 -0.1919
vn 0.4631 0.8827 0.0800
vn -0.4646 0.8827 -0.0709
vn -0.2189 0.9361 -0.2754
vn -0.5057 0.8626 0.0135
vn 0.4928 0.8626 -0.1141
vn 0.1426 0.9361 -0.3216
vn 0.4318 0.8827 -0.1855
vn -0.4281 0.8827 0.1939
vn -0.3336 0.9361 -0.1116
vn -0.4166 0.8626 0.2870
vn 0.3468 0.8626 -0.3682
vn -0.0597 0.9361 -0.3467
vn 0.2565 0.8827 -0.3938
vn -0.2488 0.8827 0.3987
vn -0.3395 0.9361 0.0921
vn -0.1876 0.8626 0.4698
vn 0.2875 0.9025 -0.3208
vn -0.0899 0.8791 -0.4681
vn 0.0151 0.8664 -0.4991
vn 0.0151 0.8664 0.4991
vn -0.0899 0.8791 0.4681
vn 0.2875 0.9025 0.3208
vn 0.0446 0.9025 -0.4285
vn -0.3475 0.8791 -0.3262
vn -0.2807 0.8664 -0.4130
vn 0.3051 0.8664 0.3953
vn 0.2018 0.8791 0.4318
vn 0.4211 0.9025 0.0911
vn -0.2264 0.9025 -0.3665
vn -0.4744 0.8791 -0.0461
vn -0.4745 0.8664 -0.1556
vn 0.4830 0.8664 0.1267
vn 0.4235 0.8791 0.2187
vn 0.3890 0.9025 -0.1850
vn -0.4107 0.9025 -0.1299
vn -0.3895 0.8791 0.2747
vn -0.4610 0.8664 0.1918
vn 0.4486 0.8664 -0.2193
vn 0.4636 0.8791 -0.1108
vn 0.1739 0.9025 -0.3941
vn -0.3800 0.9025 0.2030
vn -0.0757 0.8791 0.4706
vn -0.1850 0.8664 0.4638
vn 0.1567 0.8664 -0.4741
vn 0.2447 0.8791 -0.4090
vn -0.1603 0.9025 -0.3998
vn -0.1881 0.9025 0.3875
vn 0.2153 0.8791 0.4252
vn 0.1229 0.8664 0.4840
vn -0.1518 0.8664 -0.4757
vn -0.0423 0.8791 -0.4747
vn -0.3647 0.9025 -0.2293
vn 0.0369 0.9025 0.4292
vn 0.4027 0.8791 0.2550
vn 0.3534 0.8664 0.3528
vn -0.3741 0.8664 -0.3308
vn -0.2795 0.8791 -0.3861
vn -0.4307 0.9025 -0.0102
vn 0.2705 0.9025 0.3353
vn 0.4764 0.8791 -0.0137
vn 0.4902 0.8664 0.0950
vn -0.4951 0.8664 -0.0652
vn -0.4476 0.8791 -0.1639
vn -0.3628 0.9025 0.2323
vn 0.4095 0.9025 0.1336
vn 0.3920 0.8791 -0.2712
vn 0.4628 0.8664 -0.1877
vn -0.4506 0.8664 0.2152
vn -0.4646 0.8791 0.1066
vn -0.1775 0.9025 0.3925
vn 0.4149 0.9025 -0.1159
vn 0.1758 0.8791 -0.4430
vn 0.2811 0.8664 -0.4127
vn -0.2557 0.8664 0.4290
vn -0.3275 0.8791 0.3463
vn 0.0699 0.9025 0.4251
usemtl Palm_Tree_Trunk.006
s 1
f 1/1/1 2/2/1 3/3/1
f 2/4/2 4/5/2 5/6/2
f 5/7/3 6/8/3 7/9/3
f 1/10/4 6/11/4 4/12/4
f 7/13/5 8/14/5 9/15/5
f 8/16/6 3/17/6 9/18/6
f 10/19/7 11/20/7 12/21/7
f 13/22/8 14/23/8 12/24/8
f 13/22/9 15/25/9 16/26/9
f 17/27/10 15/25/10 18/28/10
f 17/27/11 3/17/11 19/29/11
f 11/30/12 13/31/12 12/32/12
f 20/33/13 13/31/13 21/34/13
f 20/33/14 17/35/14 18/36/14
f 7/13/15 17/35/15 22/37/15
f 23/38/16 21/39/16 11/40/16
f 24/41/17 21/39/18 25/42/18
f 24/41/17 22/43/19 20/44/17
f 5/7/20 22/43/19 26/45/21
f 10/46/22 25/47/22 23/48/22
f 27/49/23 25/47/23 28/50/23
f 27/49/24 26/51/24 24/52/24
f 2/4/25 26/51/25 29/53/25
f 16/54/26 10/55/26 14/56/26
f 16/54/27 27/57/27 28/58/27
f 19/59/28 27/57/28 15/60/28
f 19/59/29 2/2/29 29/61/29
f 1/1/1 30/62/1 2/2/1
f 2/4/2 30/63/2 4/5/2
f 5/7/3 4/64/3 6/8/3
f 4/12/4 30/65/4 1/10/4
f 1/10/4 8/66/4 6/11/4
f 7/13/5 6/67/5 8/14/5
f 8/16/6 1/68/6 3/17/6
f 12/21/7 14/69/7 10/19/7
f 10/19/7 23/70/7 11/20/7
f 13/22/8 16/26/8 14/23/8
f 13/22/9 18/28/9 15/25/9
f 17/27/10 19/29/10 15/25/10
f 17/27/11 9/18/11 3/17/11
f 11/30/12 21/34/12 13/31/12
f 20/33/13 18/36/13 13/31/13
f 20/33/14 22/37/14 17/35/14
f 7/13/15 9/15/15 17/35/15
f 23/38/16 25/42/16 21/39/16
f 24/41/17 20/44/17 21/39/18
f 24/41/17 26/45/21 22/43/19
f 5/7/20 7/9/20 22/43/19
f 10/46/22 28/50/22 25/47/22
f 27/49/23 24/52/23 25/47/23
f 27/49/24 29/53/24 26/51/24
f 2/4/25 5/6/25 26/51/25
f 16/54/26 28/58/26 10/55/26
f 16/54/27 15/60/27 27/57/27
f 19/59/28 29/61/28 27/57/28
f 19/59/29 3/3/29 2/2/29
usemtl Tree_Leaves.014
f 31/71/30 32/72/30 33/73/30
f 34/74/31 35/75/31 36/76/31
f 31/71/32 37/77/32 34/74/32
f 38/78/33 31/71/33 34/74/33
f 39/79/34 34/74/34 36/76/34
f 40/80/35 31/71/35 41/81/35
f 42/82/36 43/83/36 44/84/36
f 45/85/37 46/86/37 47/87/37
f 42/82/38 48/88/38 45/85/38
f 49/89/39 42/82/39 45/85/39
f 50/90/40 45/85/40 47/87/40
f 51/91/41 42/82/41 52/92/41
f 53/93/42 54/94/42 55/95/42
f 56/96/43 57/97/43 58/98/43
f 53/93/44 59/99/44 56/96/44
f 60/100/45 53/93/45 56/96/45
f 61/101/46 56/96/46 58/98/46
f 62/102/47 53/93/47 63/103/47
f 64/104/48 65/105/48 66/106/48
f 67/107/49 68/108/49 69/109/49
f 64/104/50 70/110/50 67/107/50
f 71/111/51 64/104/51 67/107/51
f 72/112/52 67/107/52 69/109/52
f 73/113/53 64/104/53 74/114/53
f 75/115/54 76/116/54 77/117/54
f 78/118/55 79/119/55 80/120/55
f 75/115/56 81/121/56 78/118/56
f 82/122/57 75/115/57 78/118/57
f 83/123/58 78/118/58 80/120/58
f 84/124/59 75/115/59 85/125/59
f 86/126/60 87/127/60 88/128/60
f 89/129/61 90/130/61 91/131/61
f 86/126/62 92/132/62 89/129/62
f 93/133/63 86/126/63 89/129/63
f 94/134/64 89/129/64 91/131/64
f 95/135/65 86/126/65 96/136/65
f 97/137/66 98/138/66 99/139/66
f 100/140/67 101/141/67 102/142/67
f 97/137/68 103/143/68 100/140/68
f 104/144/69 97/137/69 100/140/69
f 105/145/70 100/140/70 102/142/70
f 106/146/71 97/137/71 107/147/71
f 108/148/72 109/149/72 110/150/72
f 111/151/73 112/152/73 113/153/73
f 108/148/74 114/154/74 111/151/74
f 115/155/75 108/148/75 111/151/75
f 116/156/76 111/151/76 113/153/76
f 117/157/77 108/148/77 118/158/77
f 119/159/78 120/160/78 121/161/78
f 122/162/79 123/163/79 124/164/79
f 119/159/80 125/165/80 122/162/80
f 126/166/81 119/159/81 122/162/81
f 127/167/82 122/162/82 124/164/82
f 128/168/83 119/159/83 129/169/83
f 130/170/84 131/171/84 132/172/84
f 133/173/85 134/174/85 135/175/85
f 130/170/86 136/176/86 133/173/86
f 137/177/87 130/170/87 133/173/87
f 138/178/88 133/173/88 135/175/88
f 139/179/89 130/170/89 140/180/89
f 31/71/90 141/181/90 32/72/90
f 34/74/91 37/77/91 35/75/91
f 31/71/92 33/73/92 37/77/92
f 38/78/93 41/81/93 31/71/93
f 39/79/94 38/78/94 34/74/94
f 40/80/95 141/181/95 31/71/95
f 42/82/96 142/182/96 43/83/96
f 45/85/97 48/88/97 46/86/97
f 42/82/98 44/84/98 48/88/98
f 49/89/99 52/92/99 42/82/99
f 50/90/100 49/89/100 45/85/100
f 51/91/101 142/182/101 42/82/101
f 53/93/102 143/183/102 54/94/102
f 56/96/103 59/99/103 57/97/103
f 53/93/104 55/95/104 59/99/104
f 60/100/105 63/103/105 53/93/105
f 61/101/106 60/100/106 56/96/106
f 62/102/107 143/183/107 53/93/107
f 64/104/108 144/184/108 65/105/108
f 67/107/109 70/110/109 68/108/109
f 64/104/110 66/106/110 70/110/110
f 71/111/111 74/114/111 64/104/111
f 72/112/112 71/111/112 67/107/112
f 73/113/113 144/184/113 64/104/113
f 75/115/114 145/185/114 76/116/114
f 78/118/115 81/121/115 79/119/115
f 75/115/116 77/117/116 81/121/116
f 82/122/117 85/125/117 75/115/117
f 83/123/118 82/122/118 78/118/118
f 84/124/119 145/185/119 75/115/119
f 86/126/120 146/186/120 87/127/120
f 89/129/121 92/132/121 90/130/121
f 86/126/122 88/128/122 92/132/122
f 93/133/123 96/136/123 86/126/123
f 94/134/124 93/133/124 89/129/124
f 95/135/125 146/186/125 86/126/125
f 97/137/126 147/187/126 98/138/126
f 100/140/127 103/143/127 101/141/127
f 97/137/128 99/139/128 103/143/128
f 104/144/129 107/147/129 97/137/129
f 105/145/130 104/144/130 100/140/130
f 106/146/131 147/187/131 97/137/131
f 108/148/132 148/188/132 109/149/132
f 111/151/133 114/154/133 112/152/133
f 108/148/134 110/150/134 114/154/134
f 115/155/135 118/158/135 108/148/135
f 116/156/136 115/155/136 111/151/136
f 117/157/137 148/188/137 108/148/137
f 119/159/138 149/189/138 120/160/138
f 122/162/139 125/165/139 123/163/139
f 119/159/140 121/161/140 125/165/140
f 126/166/141 129/169/141 119/159/141
f 127/167/142 126/166/142 122/162/142
f 128/168/143 149/189/143 119/159/143
f 130/170/144 150/190/144 131/171/144
f 133/173/145 136/176/145 134/174/145
f 130/170/146 132/172/146 136/176/146
f 137/177/147 140/180/147 130/170/147
f 138/178/148 137/177/148 133/173/148
f 139/179/149 150/190/149 130/170/149
