# Blender v2.79 (sub 0) OBJ File: 'Room.blend'
# www.blender.org
mtllib Room.mtl
o Room
v -10.758536 0.013694 -10.766775
v 10.312284 0.013690 10.033304
v 10.312277 0.013694 -10.766783
v -10.128551 8.480630 1.549732
v -10.128548 8.318420 10.033269
v -10.128551 8.170646 1.549732
v -10.758478 8.480628 10.033271
v -10.758478 8.111101 10.033271
v -10.758482 8.480630 -1.808357
v -10.758486 8.111105 -10.766730
v -10.758482 8.111103 -1.808357
v -10.758486 8.480632 -10.766730
v -10.128555 8.170648 -10.766732
v -10.758482 0.053113 -1.808358
v -10.128555 0.053115 -10.766733
v -10.128551 0.053113 -1.808359
v -10.128551 8.480630 -1.808358
v -10.128548 8.480628 10.033269
v -10.758481 8.480630 1.549733
v -10.758478 0.053111 10.033270
v -10.128551 0.053113 1.549731
v -10.128548 0.053111 10.033268
v -10.758481 8.111103 1.549733
v -10.128551 8.170646 -1.808358
v -10.128555 8.480632 -10.766732
v -10.128555 1.406396 -10.766733
v -10.758478 1.406392 10.033270
v -10.758481 0.053113 1.549732
v -10.758486 1.406396 -10.766731
v -10.758486 0.053115 -10.766775
v -10.128548 1.406392 10.033268
v -10.128551 1.406394 1.549730
v -10.128551 1.406394 -1.808359
v -10.128555 3.747956 -10.766732
v -10.128551 3.747954 -1.808358
v -10.758482 1.406394 -1.808358
v -10.758478 3.747952 10.033271
v -10.758481 1.406394 1.549731
v -10.758486 3.747952 -10.766730
v -10.758482 3.747954 -1.808357
v -10.128548 3.747952 10.033269
v -10.128551 3.747954 1.549732
v -10.758481 3.747954 1.549733
v 8.651443 8.480632 -10.768596
v 9.682352 8.170643 -10.768596
v 8.651443 8.170643 -10.768596
v 9.682352 8.480632 -10.768596
v 9.682353 8.170643 -10.138665
v -9.043588 8.480632 -10.138659
v -10.128557 8.170643 -10.138658
v -9.043588 8.170643 -10.138659
v -10.128557 8.480632 -10.138658
v -10.128558 8.170643 -10.768590
v -9.043588 0.053115 -10.138660
v -10.128558 0.053115 -10.768591
v -9.043589 0.053115 -10.768591
v -10.128558 8.480632 -10.768590
v 8.651444 8.480632 -10.138665
v 8.651444 0.053115 -10.138666
v 8.651443 0.053115 -10.768597
v 8.651444 8.170643 -10.138665
v -9.043589 8.170643 -10.768590
v 9.682353 8.480632 -10.138665
v 9.682353 0.053115 -10.138666
v 9.682352 0.053115 -10.768597
v -9.043589 8.480632 -10.768590
v -9.043589 5.994979 -10.768590
v 8.651443 3.747952 -10.768596
v -9.043589 3.747952 -10.768590
v 9.682353 5.994978 -10.138665
v 8.651444 3.747952 -10.138665
v 9.682353 3.747952 -10.138665
v -10.128558 5.994979 -10.768590
v -10.128558 3.747952 -10.768590
v 8.651444 5.994978 -10.138665
v -9.043588 3.747952 -10.138659
v -10.128557 5.994978 -10.138658
v -10.128557 3.747952 -10.138658
v -9.043588 5.994978 -10.138659
v 9.682352 5.994979 -10.768596
v 9.682352 3.747952 -10.768596
v 8.651443 5.994979 -10.768596
v 10.312285 8.480630 -0.953321
v 10.312289 8.173174 10.033263
v 10.312285 8.173176 -0.953321
v 9.682358 8.480628 10.033263
v 9.682358 8.168113 10.033263
v 9.682353 8.480631 -4.612523
v 9.682350 8.168117 -10.766738
v 9.682353 8.168116 -4.612519
v 9.682350 8.480632 -10.766738
v 10.312282 8.173178 -10.766738
v 9.682353 0.053114 -4.612524
v 10.312277 0.053115 -10.766739
v 10.312284 0.053114 -4.612520
v 10.312282 8.480632 -10.766738
v 9.682354 8.480630 -0.953321
v 10.312284 8.480631 -4.612519
v 9.682354 0.053113 -0.953322
v 10.312285 0.053113 -0.953322
v 9.682354 8.168115 -0.953321
v 10.312284 8.173177 -4.612519
v 9.682358 0.053111 10.033262
v 10.312284 0.053111 10.033262
v 10.312284 3.747951 -4.612520
v 9.682358 3.747948 10.033263
v 10.312282 3.747952 -10.766738
v 9.682350 3.747952 -10.766738
v 9.682350 0.053115 -10.766739
v 9.682353 3.747951 -4.612524
v 10.312285 3.747950 -0.953321
v 9.682354 3.747950 -0.953321
v -10.128557 0.053115 -10.138659
v 10.312289 3.747948 10.033263
v -10.758529 0.013690 10.033312
v 10.312289 8.480628 10.033263
vt 0.446787 0.363209
vt 0.427869 0.360545
vt 0.430442 0.353910
vt 0.101072 0.351478
vt 0.083043 0.367792
vt 0.083044 0.361065
vt 0.383462 0.096395
vt 0.325717 0.106240
vt 0.325717 0.096395
vt 0.325291 0.000215
vt 0.000213 0.329520
vt 0.000215 0.000213
vt 0.390633 0.316943
vt 0.400828 0.313562
vt 0.406109 0.319271
vt 0.805935 0.339793
vt 0.784786 0.329948
vt 0.805935 0.329948
vt 0.392881 0.313518
vt 0.401502 0.193504
vt 0.441045 0.000213
vt 0.450890 0.132799
vt 0.441045 0.132799
vt 0.621303 0.873198
vt 0.344761 0.863352
vt 0.621303 0.863353
vt 0.058923 0.360007
vt 0.075622 0.354182
vt 0.625647 0.524239
vt 0.712499 0.447110
vt 0.712500 0.529264
vt 0.087732 0.329948
vt 0.092853 0.337504
vt 0.468325 0.509246
vt 0.370136 0.460505
vt 0.437000 0.446270
vt 0.784356 0.664867
vt 0.712926 0.532282
vt 0.782046 0.532282
vt 0.325717 0.000213
vt 0.383462 0.000213
vt 0.411494 0.322152
vt 0.423668 0.315265
vt 0.428100 0.320361
vt 0.430773 0.312351
vt 0.440618 0.172344
vt 0.440618 0.312351
vt 0.103244 0.357995
vt 0.111502 0.422782
vt 0.413628 0.162310
vt 0.408010 0.098100
vt 0.413128 0.098163
vt 0.842528 0.807298
vt 0.805934 0.674712
vt 0.842529 0.674712
vt 0.168181 0.443830
vt 0.211749 0.451470
vt 0.166184 0.456624
vt 0.360750 0.482726
vt 0.323039 0.459426
vt 0.529068 0.381972
vt 0.473180 0.362046
vt 0.415774 0.314825
vt 0.408011 0.162367
vt 0.217229 0.453541
vt 0.173751 0.476393
vt 0.390277 0.007634
vt 0.400696 0.133363
vt 0.388887 0.133556
vt 0.781116 0.807297
vt 0.712926 0.674712
vt 0.781116 0.674712
vt 0.425223 0.162203
vt 0.805933 0.807298
vt 0.784784 0.674712
vt 0.063397 0.509246
vt 0.000213 0.391516
vt 0.217905 0.448798
vt 0.217257 0.453400
vt 0.317743 0.455804
vt 0.317302 0.460367
vt 0.034215 0.873198
vt 0.310757 0.863352
vt 0.310757 0.873198
vt 0.842527 0.999786
vt 0.805933 0.859780
vt 0.842528 0.859780
vt 0.372583 0.270736
vt 0.335988 0.280581
vt 0.335988 0.270736
vt 0.784783 0.859780
vt 0.805932 0.999786
vt 0.784782 0.999787
vt 0.322875 0.457360
vt 0.398170 0.006931
vt 0.407584 0.133262
vt 0.366395 0.202848
vt 0.366395 0.255330
vt 0.356550 0.255330
vt 0.367837 0.447532
vt 0.317766 0.455675
vt 0.357291 0.432463
vt 0.389664 0.193687
vt 0.383889 0.133567
vt 0.372583 0.270310
vt 0.335988 0.260465
vt 0.372583 0.260465
vt 0.805935 0.479800
vt 0.784786 0.339793
vt 0.407445 0.193482
vt 0.653765 0.752229
vt 0.180791 0.425141
vt 0.211753 0.449311
vt 0.440243 0.339484
vt 0.456252 0.358930
vt 0.447618 0.370089
vt 0.712926 0.479799
vt 0.782046 0.479799
vt 0.588351 0.334303
vt 0.614457 0.461035
vt 0.535576 0.447485
vt 0.712926 0.339793
vt 0.782046 0.339793
vt 0.103155 0.357574
vt 0.842531 0.339793
vt 0.842531 0.329948
vt 0.424350 0.007339
vt 0.411435 0.000213
vt 0.429114 0.001897
vt 0.416197 0.007951
vt 0.712926 0.664867
vt 0.430773 0.000213
vt 0.440618 0.171917
vt 0.430773 0.171917
vt 0.325717 0.299029
vt 0.335562 0.202848
vt 0.335562 0.299029
vt 0.096729 0.442079
vt 0.173484 0.476864
vt 0.401792 0.403312
vt 0.180591 0.424645
vt 0.130608 0.396032
vt 0.383888 0.193785
vt 0.425204 0.098338
vt 0.430347 0.098339
vt 0.421659 0.426775
vt 0.057958 0.681377
vt 0.000213 0.509672
vt 0.057958 0.509672
vt 0.000213 0.681377
vt 0.057958 0.691222
vt 0.000213 0.691222
vt 0.444813 0.332354
vt 0.620603 0.636971
vt 0.628028 0.757663
vt 0.613716 0.637384
vt 0.383462 0.202421
vt 0.383462 0.106240
vt 0.805934 0.664867
vt 0.784784 0.532282
vt 0.805934 0.532282
vt 0.784784 0.664867
vt 0.427782 0.360952
vt 0.317307 0.460510
vt 0.842529 0.664868
vt 0.842530 0.479800
vt 0.000213 0.863353
vt 0.000213 0.873198
vt 0.529494 0.526445
vt 0.842530 0.532282
vt 0.385608 0.000213
vt 0.403181 0.000698
vt 0.357465 0.432091
vt 0.781116 0.329948
vt 0.712926 0.329948
vt 0.616358 0.524178
vt 0.057958 0.862926
vt 0.622150 0.412185
vt 0.606049 0.329948
vt 0.781116 0.999786
vt 0.712926 0.859780
vt 0.781116 0.859780
vt 0.430107 0.162226
vt 0.614972 0.413548
vt 0.217905 0.448647
vt 0.361029 0.483301
vt 0.346279 0.202848
vt 0.356124 0.255330
vt 0.346279 0.255330
vt 0.712926 0.807298
vt 0.345853 0.202851
vt 0.345833 0.260039
vt 0.335988 0.260036
vt 0.325717 0.299455
vt 0.383462 0.299455
vt 0.383462 0.309300
vt 0.383462 0.309726
vt 0.383462 0.319571
vt 0.325717 0.319571
vt 0.325289 0.329522
vt 0.450890 0.000213
vt 0.344761 0.873198
vt 0.624490 0.469797
vt 0.784783 0.807298
vt 0.430773 0.172343
vt 0.034215 0.863353
vt 0.372583 0.280581
vt 0.784785 0.479799
vt 0.335988 0.270310
vt 0.440618 0.000213
vt 0.325717 0.202848
vt 0.325717 0.202421
vt 0.000213 0.862926
vt 0.712926 0.999786
vt 0.356124 0.202848
vt 0.336008 0.202848
vt 0.325717 0.309300
vt 0.325717 0.309726
vt 0.356550 0.202848
vn 0.0000 0.0000 -1.0000
vn 0.0000 1.0000 0.0000
vn 0.0000 0.0000 1.0000
vn -0.0000 -1.0000 -0.0000
vn -1.0000 0.0000 0.0000
vn 0.9045 -0.3015 -0.3015
vn 1.0000 -0.0000 -0.0000
vn -0.9487 0.0000 -0.3162
vn -0.9045 0.3015 -0.3015
vn -0.9045 0.3015 0.3015
vn 0.9045 0.3015 -0.3015
vn 0.9045 0.3015 0.3015
vn 0.0000 -0.7071 -0.7071
vn -0.0000 -0.7071 0.7071
vn 0.5773 -0.5773 0.5774
vn 0.5774 -0.5774 -0.5774
vn 0.9045 -0.3015 0.3015
vn 0.0001 0.0000 -1.0000
usemtl default
s 1
f 47/1/1 46/2/1 44/3/1
f 66/4/1 53/5/1 57/6/1
f 108/7/1 94/8/1 109/9/1
f 115/10/2 3/11/2 1/12/2
f 5/13/3 7/14/3 8/15/3
f 26/16/1 30/17/1 29/18/1
f 18/19/2 19/20/2 7/14/2
f 28/21/4 22/22/4 20/23/4
f 61/24/4 62/25/4 46/26/4
f 57/6/5 50/27/5 52/28/5
f 111/29/6 102/30/7 85/31/7
f 52/28/3 51/32/3 49/33/3
f 75/34/3 72/35/3 70/36/3
f 5/37/7 42/38/7 6/39/7
f 108/7/5 93/40/5 110/41/5
f 84/42/3 86/43/3 87/44/3
f 14/45/4 15/46/4 16/47/4
f 62/48/1 73/49/1 53/5/1
f 83/50/7 102/51/7 98/52/7
f 43/53/8 27/54/5 37/55/5
f 74/56/5 113/57/5 78/58/5
f 71/59/3 64/60/3 72/35/3
f 61/61/3 70/36/3 48/62/3
f 116/63/7 85/64/7 83/50/7
f 78/58/3 54/65/3 76/66/3
f 25/67/2 9/68/2 17/69/2
f 23/70/5 37/71/5 8/72/5
f 97/73/5 87/44/5 86/43/5
f 38/74/9 20/75/5 27/54/5
f 50/27/3 79/76/3 51/77/3
f 113/57/4 56/78/4 54/79/4
f 54/79/4 60/80/4 59/81/4
f 75/82/2 67/83/2 79/84/2
f 39/85/5 36/86/10 40/87/5
f 43/88/8 32/89/11 38/90/9
f 19/20/5 8/15/5 7/14/5
f 14/91/5 29/92/5 30/93/5
f 59/81/4 65/94/4 64/60/4
f 12/95/5 11/96/5 9/68/5
f 36/97/10 38/98/9 32/99/11
f 81/100/1 60/101/1 68/102/1
f 4/103/7 24/104/7 17/69/7
f 40/105/3 33/106/12 35/107/3
f 33/108/12 15/109/7 26/16/7
f 9/68/5 23/110/5 19/20/5
f 84/111/7 111/29/6 85/31/7
f 69/112/1 55/113/1 74/56/1
f 47/1/2 58/114/2 63/115/2
f 63/115/7 45/116/7 47/1/7
f 72/35/7 65/94/7 81/100/7
f 6/39/7 35/117/7 24/118/7
f 62/25/7 79/84/7 67/83/7
f 89/119/5 110/120/5 90/121/5
f 24/118/7 34/122/7 13/123/7
f 44/3/1 62/124/1 66/4/1
f 66/4/2 58/114/2 44/3/2
f 34/125/1 29/18/1 39/126/1
f 91/127/1 92/128/1 89/129/1
f 98/52/7 92/128/7 96/130/7
f 41/131/3 8/72/3 37/71/3
f 99/132/13 104/133/4 103/134/4
f 93/135/14 94/136/4 95/137/15
f 77/138/3 76/139/3 79/76/3
f 82/140/1 69/141/1 67/142/1
f 18/19/7 6/143/7 4/103/7
f 86/43/2 83/50/2 97/73/2
f 88/144/5 89/129/5 90/145/5
f 48/62/7 80/146/7 45/116/7
f 66/4/2 52/28/2 49/33/2
f 114/147/7 100/148/16 111/149/6
f 104/150/3 106/151/3 103/152/3
f 49/33/3 61/153/3 58/114/3
f 114/154/3 87/155/3 106/156/3
f 105/157/17 94/8/7 107/158/7
f 31/159/7 21/160/7 32/161/11
f 4/103/2 9/68/2 19/20/2
f 97/73/2 98/52/2 88/144/2
f 27/54/3 22/162/3 31/159/3
f 45/116/1 82/140/1 46/163/1
f 76/66/3 59/164/3 71/59/3
f 73/49/5 78/58/5 77/138/5
f 58/114/3 48/62/3 63/115/3
f 37/55/3 31/159/3 41/165/3
f 35/166/7 26/16/7 34/125/7
f 53/5/5 77/138/5 50/27/5
f 46/167/5 75/82/5 61/168/5
f 101/169/5 106/156/5 87/155/5
f 41/165/7 32/161/11 42/170/7
f 12/95/1 13/171/1 10/172/1
f 80/146/1 68/173/1 82/140/1
f 10/174/1 34/122/1 39/175/1
f 90/121/5 112/176/5 101/169/5
f 112/177/5 103/152/5 106/151/5
f 102/30/7 107/178/7 92/179/7
f 10/180/5 40/181/5 11/182/5
f 97/73/5 90/145/5 101/183/5
f 88/144/2 96/130/2 91/127/2
f 17/69/7 13/171/7 25/67/7
f 89/119/1 107/178/1 108/184/1
f 67/142/1 74/56/1 73/49/1
f 70/36/7 81/100/7 80/146/7
f 68/102/1 56/185/1 69/112/1
f 79/76/3 71/186/3 75/34/3
f 40/187/4 42/188/4 43/189/4
f 11/182/5 43/190/8 23/70/5
f 21/160/7 33/108/12 32/161/11
f 105/191/17 111/192/6 112/193/13
f 95/194/15 105/195/17 110/196/14
f 112/197/13 111/198/6 100/199/16
f 47/1/1 45/116/1 46/2/1
f 66/4/1 62/124/1 53/5/1
f 108/7/1 107/158/1 94/8/1
f 115/10/2 2/200/2 3/11/2
f 5/13/3 18/19/3 7/14/3
f 26/16/1 15/109/18 30/17/1
f 18/19/2 4/103/2 19/20/2
f 28/21/4 21/201/4 22/22/4
f 61/24/4 51/202/4 62/25/4
f 57/6/5 53/5/5 50/27/5
f 111/29/6 105/203/17 102/30/7
f 52/28/3 50/27/3 51/32/3
f 14/91/5 28/204/5 38/74/9
f 75/34/3 71/186/3 72/35/3
f 5/37/7 41/131/7 42/38/7
f 108/7/5 109/9/5 93/40/5
f 84/42/3 116/63/3 86/43/3
f 14/45/4 30/205/4 15/46/4
f 62/48/1 67/142/1 73/49/1
f 83/50/7 85/64/7 102/51/7
f 43/53/8 38/74/9 27/54/5
f 74/56/5 55/113/5 113/57/5
f 71/59/3 59/164/3 64/60/3
f 61/61/3 75/34/3 70/36/3
f 116/63/7 84/42/7 85/64/7
f 78/58/3 113/57/3 54/65/3
f 25/67/2 12/95/2 9/68/2
f 23/70/5 43/190/8 37/71/5
f 97/73/5 101/183/5 87/44/5
f 38/74/9 28/204/5 20/75/5
f 50/27/3 77/138/3 79/76/3
f 113/57/4 55/113/4 56/78/4
f 54/79/4 56/78/4 60/80/4
f 75/82/2 82/206/2 67/83/2
f 39/85/5 29/92/5 36/86/10
f 43/88/8 42/207/1 32/89/11
f 19/20/5 23/110/5 8/15/5
f 14/91/5 36/86/10 29/92/5
f 59/81/4 60/80/4 65/94/4
f 12/95/5 10/172/5 11/96/5
f 21/160/7 16/208/7 33/108/12
f 81/100/1 65/94/1 60/101/1
f 4/103/7 6/143/7 24/104/7
f 40/105/3 36/209/10 33/106/12
f 33/108/12 16/208/7 15/109/7
f 9/68/5 11/96/5 23/110/5
f 84/111/7 114/154/7 111/29/6
f 69/112/1 56/185/1 55/113/1
f 47/1/2 44/3/2 58/114/2
f 63/115/7 48/62/7 45/116/7
f 72/35/7 64/60/7 65/94/7
f 6/39/7 42/38/7 35/117/7
f 62/25/7 51/202/7 79/84/7
f 89/119/5 108/184/5 110/120/5
f 24/118/7 35/117/7 34/122/7
f 44/3/1 46/2/1 62/124/1
f 66/4/2 49/33/2 58/114/2
f 34/125/1 26/16/1 29/18/1
f 91/127/1 96/130/1 92/128/1
f 98/52/7 102/51/7 92/128/7
f 41/131/3 5/37/3 8/72/3
f 99/132/13 100/210/16 104/133/4
f 93/135/14 109/211/4 94/136/4
f 77/138/3 78/58/3 76/139/3
f 82/140/1 68/173/1 69/141/1
f 18/19/7 5/13/7 6/143/7
f 86/43/2 116/63/2 83/50/2
f 88/144/5 91/127/5 89/129/5
f 48/62/7 70/36/7 80/146/7
f 66/4/2 57/6/2 52/28/2
f 114/147/7 104/150/7 100/148/16
f 104/150/3 114/147/3 106/151/3
f 49/33/3 51/32/3 61/153/3
f 114/154/3 84/111/3 87/155/3
f 105/157/17 95/212/15 94/8/7
f 31/159/7 22/162/7 21/160/7
f 4/103/2 17/69/2 9/68/2
f 97/73/2 83/50/2 98/52/2
f 27/54/3 20/75/3 22/162/3
f 45/116/1 80/146/1 82/140/1
f 76/66/3 54/65/3 59/164/3
f 73/49/5 74/56/5 78/58/5
f 58/114/3 61/153/3 48/62/3
f 37/55/3 27/54/3 31/159/3
f 35/166/7 33/108/12 26/16/7
f 53/5/5 73/49/5 77/138/5
f 46/167/5 82/206/5 75/82/5
f 101/169/5 112/176/5 106/156/5
f 41/165/7 31/159/7 32/161/11
f 12/95/1 25/67/1 13/171/1
f 80/146/1 81/100/1 68/173/1
f 10/174/1 13/123/1 34/122/1
f 90/121/5 110/120/5 112/176/5
f 112/177/5 99/213/5 103/152/5
f 102/30/7 105/203/17 107/178/7
f 10/180/5 39/214/5 40/181/5
f 97/73/5 88/144/5 90/145/5
f 88/144/2 98/52/2 96/130/2
f 17/69/7 24/104/7 13/171/7
f 89/119/1 92/179/1 107/178/1
f 67/142/1 69/141/1 74/56/1
f 70/36/7 72/35/7 81/100/7
f 68/102/1 60/101/1 56/185/1
f 79/76/3 76/139/3 71/186/3
f 40/187/4 35/215/4 42/188/4
f 11/182/5 40/181/5 43/190/8
f 14/91/5 38/74/9 36/86/10
f 105/191/17 112/193/13 110/216/14
f 95/194/15 110/196/14 93/217/14
f 112/197/13 100/199/16 99/218/13
f 36/97/10 32/99/11 33/219/12
